<svg width="53" height="54" viewBox="0 0 53 54" fill="none" xmlns="http://www.w3.org/2000/svg">
<g id="Icon">
<circle id="Background" cx="26.3889" cy="26.8538" r="26.3889" fill="#181818"/>
<g id="Icon_2">
<path id="Iocn" d="M26.3602 39.3059C33.241 39.3059 38.819 33.7278 38.819 26.847C38.819 19.9662 33.241 14.3882 26.3602 14.3882C19.4794 14.3882 13.9014 19.9662 13.9014 26.847C13.9014 33.7278 19.4794 39.3059 26.3602 39.3059Z" stroke="white" stroke-width="2" stroke-linecap="round" stroke-linejoin="round"/>
<path id="Iocn_2" d="M16.1855 34.0368L17.704 33.1154C17.8546 33.0225 17.9789 32.8927 18.0652 32.7382C18.1515 32.5838 18.1969 32.4098 18.1971 32.2329L18.2231 27.5478C18.2252 27.3536 18.2838 27.1642 18.3918 27.0028L20.9614 22.9666C21.0385 22.8474 21.139 22.745 21.2568 22.6656C21.3746 22.5863 21.5072 22.5316 21.6467 22.5049C21.7861 22.4783 21.9296 22.4801 22.0683 22.5104C22.2071 22.5407 22.3382 22.5987 22.4539 22.6811L24.9976 24.524C25.217 24.677 25.4842 24.7461 25.7503 24.7186L29.8384 24.1606C30.0864 24.1264 30.3129 24.0016 30.4743 23.8102L33.3554 20.4878C33.5262 20.2853 33.6143 20.0257 33.602 19.7611L33.4592 16.6074" stroke="white" stroke-width="2" stroke-linecap="round" stroke-linejoin="round"/>
<path id="Iocn_3" d="M34.0297 36.6717L32.6281 35.2701C32.4984 35.1405 32.3375 35.0466 32.1609 34.9975L29.3706 34.2708C29.1255 34.2037 28.9136 34.0491 28.7749 33.8362C28.6361 33.6234 28.5803 33.367 28.6179 33.1157L28.9164 31.0133C28.946 30.8365 29.0198 30.67 29.131 30.5293C29.2422 30.3887 29.3871 30.2784 29.5523 30.2087L33.4976 28.5605C33.6808 28.484 33.8821 28.4618 34.0777 28.4963C34.2732 28.5308 34.4547 28.6206 34.6007 28.7551L37.8322 31.7141" stroke="white" stroke-width="2" stroke-linecap="round" stroke-linejoin="round"/>
</g>
</g>
</svg>
