<svg width="53" height="54" viewBox="0 0 53 54" fill="none" xmlns="http://www.w3.org/2000/svg">
<g id="Icon">
<circle id="Background" cx="26.3889" cy="26.8538" r="26.3889" fill="#181818"/>
<g id="Icon_2">
<path id="Icon_3" d="M27.1146 32.5534C30.4929 32.5534 33.2316 29.8147 33.2316 26.4363C33.2316 23.058 30.4929 20.3193 27.1146 20.3193C23.7362 20.3193 20.9976 23.058 20.9976 26.4363C20.9976 29.8147 23.7362 32.5534 27.1146 32.5534Z" stroke="white" stroke-width="2" stroke-linecap="round" stroke-linejoin="round"/>
<path id="Icon_4" d="M35.718 20.4703C36.0257 20.9051 36.2951 21.365 36.5232 21.8452L39.8332 23.6615C40.2465 25.4886 40.2509 27.3826 39.846 29.2115L36.5232 31.0278C36.2951 31.508 36.0257 31.9679 35.718 32.4027L35.7819 36.1489C34.3791 37.4105 32.7188 38.3611 30.9127 38.9365L27.6538 37.0066C27.1177 37.0445 26.5796 37.0445 26.0435 37.0066L22.7973 38.9239C20.9855 38.3589 19.3197 37.4121 17.9153 36.1489L17.9792 32.4153C17.6741 31.9745 17.4049 31.5106 17.1741 31.0278L13.864 29.2115C13.4507 27.3844 13.4464 25.4904 13.8513 23.6615L17.1741 21.8452C17.4022 21.365 17.6716 20.9051 17.9792 20.4703L17.9153 16.7241C19.3181 15.4625 20.9784 14.512 22.7846 13.9365L26.0435 15.8664C26.5796 15.8285 27.1177 15.8285 27.6538 15.8664L30.8999 13.9491C32.7118 14.5141 34.3775 15.4609 35.7819 16.7241L35.718 20.4703Z" stroke="white" stroke-width="2" stroke-linecap="round" stroke-linejoin="round"/>
</g>
</g>
</svg>
